<svg width="420" height="415" viewBox="0 0 420 415" fill="none" xmlns="http://www.w3.org/2000/svg">
<path d="M20.4801 233.141C20.1581 229.056 19.9097 224.966 19.7119 220.885" stroke="black" stroke-width="4.05" stroke-miterlimit="10"/>
<path d="M253.305 380.081H136.455" stroke="#CCDDE2" stroke-width="4.05" stroke-miterlimit="10"/>
<path d="M287.418 87.9952C287.418 87.9952 321.854 71.7695 351.068 103.427C360.613 113.773 367.127 127.501 367.587 141.666C367.796 148.578 366.679 155.465 364.298 161.958C361.874 168.586 357.522 172.974 354.178 178.877C349.049 187.979 359.771 189.59 365.526 194.001C369.351 196.958 372.979 200.159 376.387 203.585C384.068 211.239 390.827 219.763 396.525 228.982C407.811 247.345 414.606 268.1 416.361 289.57C418.095 310.739 416.766 333.725 405.887 352.531C400.652 361.587 392.767 370.468 383.07 374.691C370.19 380.296 355.723 380.084 341.96 380.084H312.672" stroke="#CCDDE2" stroke-width="4.05" stroke-miterlimit="10"/>
<path d="M143.875 299.526C142.72 307.724 141 317.128 139.1 326.543L136.86 327.181C129.691 329.19 122.077 328.967 115.038 326.543L117.972 316.591L100.106 264.724C100.106 264.724 113.763 260.318 124.978 257.045L126.266 256.99C132.393 258.28 145.02 263.123 145.416 281.258C145.444 282.13 145.416 283.048 145.416 284.048C147.196 289.901 146.488 295.06 143.875 299.526Z" fill="#3FBDF1"/>
<path d="M101.822 102.092C101.646 101.645 101.301 101.285 100.862 101.088C100.422 100.891 99.923 100.875 99.4713 101.041C99.2183 101.118 98.9842 101.247 98.7859 101.422C98.0775 101.996 97.9165 103.001 97.8935 103.956C97.8291 106.136 97.7049 108.321 97.5439 110.492C97.5439 110.639 97.5209 110.804 97.5209 110.951C97.4197 112.7 97.4933 114.821 96.7481 116.344C96.7003 116.461 96.6188 116.56 96.5135 116.629C96.2651 116.744 96.0029 116.496 95.8419 116.271C95.3819 115.601 94.9219 114.944 94.4619 114.261C94.0985 113.714 93.6891 113.122 93.0543 112.948C92.1113 112.686 91.2143 113.517 90.6945 114.362C89.0155 117.116 88.8545 121.628 91.4535 123.936C94.0525 126.245 88.2335 130.785 84.0659 132.694C83.3681 133.086 82.6371 133.414 81.8809 133.676C81.8441 133.676 83.3851 134.021 83.3483 134.034C80.1053 135.161 76.7271 135.854 73.3019 136.095C69.2355 136.366 65.2703 135.857 62.3861 134.094C62.5103 133.635 63.4947 130.422 63.5545 129.963C63.7661 128.361 63.9179 126.773 64.0145 125.162C64.1893 122.137 64.1755 119.108 64.0605 116.092C63.6419 105.241 65.5785 96.1255 70.0681 94.7347C70.4228 94.6287 70.7627 94.479 71.0801 94.2895C73.1041 93.1741 74.1851 90.8194 73.2559 88.5979C73.1915 88.4464 73.1179 88.2995 73.0535 88.1389C72.9808 87.9805 72.898 87.8272 72.8051 87.6799C81.5727 84.9626 87.5251 86.8491 93.5419 90.1355C94.6868 91.0485 95.7632 92.044 96.7619 93.1144C99.1171 95.6655 100.849 98.7257 101.822 102.056V102.092Z" fill="#3FBDF1"/>
<path d="M312.58 206.418H282.68V135.107C282.68 135.107 277.16 197.068 262.035 232.172H169.433C180.349 225.25 189.102 214.794 194.931 203.54C197.231 199.087 200.911 192.478 207.029 194.213C208.482 194.621 210.621 194.883 211.702 193.556C212.075 193.047 212.287 192.438 212.309 191.808C212.834 185.308 206.081 179.837 200.515 178.111C194.949 176.385 188.445 177.193 184.015 181.228C180.822 184.142 178.821 188.012 176.485 191.597C175.082 193.721 173.42 195.662 171.535 197.375C173.936 182.825 176.075 168.917 176.383 163.799C182.239 159.187 186.54 151.664 188.067 145.008C189.746 137.737 191.228 130.628 193.836 123.821L215.184 123.894C215.988 123.894 216.759 123.575 217.328 123.008C217.896 122.441 218.216 121.672 218.216 120.869V85.4895C218.217 84.6945 217.902 83.9317 217.341 83.3671C216.78 82.803 216.018 82.4835 215.221 82.4785L200.685 82.3545C205.968 81.2529 211.324 80.5396 216.712 80.2202C216.822 80.2202 216.923 80.2202 217.02 80.2202C220.566 79.9861 226.781 79.8851 230.36 79.8484C226.096 82.1434 223.46 87.018 223.92 91.3234C224.001 92.2405 224.236 93.1374 224.614 93.9764C228.258 101.963 237.853 104.322 245.774 102C254.588 99.4339 261.065 91.3463 260.678 82.0424C266.198 82.8502 271.663 83.8752 277.073 85.1177C285.293 87.0042 293.311 89.5471 299.811 95.0918C305.478 99.9067 310.28 106.108 312.502 113.117C322.042 143.085 319.108 176.528 312.58 206.418Z" fill="#2E2E2E"/>
<path d="M176.622 163.8C175.951 174.752 174.221 185.695 172.344 196.61" stroke="black" stroke-width="4.05" stroke-miterlimit="10"/>
<path d="M194.075 123.821C191.462 130.628 189.985 137.738 188.306 145.009C186.765 151.641 182.474 159.187 176.622 163.8C171.71 167.669 165.693 169.492 159.253 167.05C150.614 163.763 147.583 154.262 146.525 145.885C145.15 135.454 145.066 124.895 146.276 114.444C147.495 117.147 152.477 125.372 167.928 123.211C168.343 123.52 168.842 123.698 169.359 123.72L194.075 123.821Z" fill="#2E2E2E"/>
<path d="M185.399 100.289C188.997 99.371 191.186 102.823 190.653 105.448C189.783 109.731 183.61 111.415 179.935 111.493C176.991 111.553 169.815 110.777 166.889 110.438" stroke="black" stroke-width="4.05" stroke-miterlimit="10"/>
<path d="M165.679 102.409C170.129 103.693 174.842 103.77 179.332 102.634C183.108 101.666 187.57 99.8801 189.548 96.2953C190.703 94.2114 189.783 90.8883 187.373 90.1539C184.59 89.3139 182.014 92.0771 179.493 92.7748C177.867 93.2168 176.207 93.5238 174.529 93.6928C174.069 93.7433 173.637 93.78 173.191 93.8167C170.843 94.0044 168.484 93.9874 166.139 93.7662C165.89 93.7662 165.646 93.6877 165.444 93.5422C165.242 93.3962 165.091 93.1906 165.012 92.9542C164.934 92.7183 164.932 92.4631 165.007 92.2258C165.082 91.9885 165.231 91.7806 165.431 91.6318L165.854 91.3243" stroke="black" stroke-width="4.05" stroke-miterlimit="10"/>
<path d="M194.075 123.821C191.462 130.628 189.986 137.737 188.307 145.008C185.473 157.213 173.389 172.42 159.253 167.04C150.614 163.754 147.583 154.252 146.525 145.876C144.869 132.904 145.007 119.579 147.445 106.718C149.469 96.1245 153.061 84.9984 163.393 79.7887L168.241 77.3698C169.398 76.7869 170.737 76.6785 171.972 77.0678C173.207 77.4575 174.241 78.314 174.852 79.4537C175.224 80.1623 175.421 80.9491 175.427 81.7487C175.431 81.8657 175.422 81.9827 175.399 82.0975" stroke="black" stroke-width="4.05" stroke-miterlimit="10"/>
<path d="M292.552 223.388C295.05 223.311 297.55 223.374 300.041 223.576C302.074 223.741 304.181 223.838 306.117 224.595C307.713 225.228 309.379 226.739 309.296 228.584C309.144 232.201 304.397 232.173 301.793 232.173" stroke="black" stroke-width="4.05" stroke-miterlimit="10"/>
<path opacity="0.54" d="M247.877 219.94L269.524 164.599C269.792 163.526 269.811 162.406 269.58 161.325C269.349 160.244 268.874 159.23 268.191 158.36C267.508 157.49 266.635 156.786 265.639 156.304C264.642 155.821 263.548 155.571 262.44 155.575H176.475C174.548 155.579 172.679 156.23 171.168 157.422C169.656 158.614 168.59 160.278 168.14 162.148L144.413 217.475C144.156 218.544 144.145 219.656 144.38 220.729C144.616 221.802 145.093 222.808 145.774 223.671C146.455 224.533 147.324 225.231 148.315 225.711C149.305 226.19 150.392 226.439 151.493 226.44H239.537C241.454 226.438 243.316 225.798 244.827 224.621C246.338 223.443 247.411 221.796 247.877 219.94Z" fill="white"/>
<path d="M247.877 219.94L269.524 164.599C269.792 163.526 269.811 162.406 269.58 161.325C269.349 160.244 268.874 159.23 268.191 158.36C267.508 157.49 266.635 156.786 265.639 156.304C264.642 155.821 263.548 155.571 262.44 155.575H176.475C174.548 155.579 172.679 156.23 171.168 157.422C169.656 158.614 168.59 160.278 168.14 162.148L144.413 217.475C144.156 218.544 144.145 219.656 144.38 220.729C144.616 221.802 145.093 222.808 145.774 223.671C146.455 224.533 147.324 225.231 148.315 225.711C149.305 226.19 150.392 226.439 151.493 226.44H239.537C241.454 226.438 243.316 225.798 244.827 224.621C246.338 223.443 247.411 221.796 247.877 219.94Z" fill="#3FBDF1"/>
<path d="M247.877 219.94L269.524 164.599C269.792 163.526 269.811 162.406 269.58 161.325C269.349 160.244 268.874 159.23 268.191 158.36C267.508 157.49 266.635 156.786 265.639 156.304C264.642 155.821 263.548 155.571 262.44 155.575H176.475C174.548 155.579 172.679 156.23 171.168 157.422C169.656 158.614 168.59 160.278 168.14 162.148L144.413 217.475C144.156 218.544 144.145 219.656 144.38 220.729C144.616 221.802 145.093 222.808 145.774 223.671C146.455 224.533 147.324 225.231 148.315 225.711C149.305 226.19 150.392 226.439 151.493 226.44H239.537C241.454 226.438 243.316 225.798 244.827 224.621C246.338 223.443 247.411 221.796 247.877 219.94Z" stroke="black" stroke-width="4.05" stroke-linecap="square" stroke-linejoin="round"/>
<path d="M244.707 217.7L264.68 166.646C264.928 165.658 264.946 164.626 264.735 163.63C264.522 162.633 264.086 161.698 263.457 160.895C262.829 160.093 262.026 159.444 261.108 158.997C260.19 158.551 259.183 158.319 258.162 158.32H178.835C177.054 158.319 175.325 158.917 173.926 160.017C172.528 161.117 171.541 162.655 171.125 164.383L149.28 215.428C149.045 216.413 149.036 217.439 149.254 218.427C149.472 219.416 149.913 220.343 150.541 221.138C151.169 221.933 151.97 222.575 152.883 223.017C153.796 223.459 154.797 223.689 155.812 223.69H237.016C238.784 223.692 240.502 223.103 241.896 222.017C243.289 220.932 244.279 219.412 244.707 217.7Z" fill="#3FBDF1"/>
<path d="M184.557 167.729C185.611 166.155 187.317 165.434 188.403 166.164C189.489 166.894 189.489 168.73 188.44 170.295C188.274 170.536 188.09 170.763 187.888 170.975L195.68 187.393C196.922 186.567 198.288 186.36 199.273 187.012C199.588 187.242 199.85 187.537 200.039 187.878C200.228 188.219 200.34 188.597 200.368 188.986L205.694 187.196L210.35 185.63L211.868 185.135C212.06 184.564 212.326 184.021 212.659 183.519C214.135 181.302 216.55 180.306 218.055 181.316C219.559 182.326 219.577 184.873 218.142 187.072L227.02 199.166C228.957 197.583 231.234 197.092 232.811 198.138C234.96 199.566 234.992 203.288 232.885 206.446C232.798 206.575 232.701 206.676 232.614 206.795L238.52 214.855L238.575 214.933C238.877 215.388 238.986 215.944 238.877 216.478C238.768 217.013 238.452 217.482 237.996 217.783C237.54 218.085 236.983 218.193 236.447 218.084C235.911 217.976 235.441 217.66 235.139 217.205L229.895 209.306C228.234 210.265 226.468 210.449 225.175 209.59C223.124 208.213 223.023 204.78 224.853 201.718L216.357 188.921C215.101 189.771 213.717 189.986 212.723 189.33C212.171 188.939 211.795 188.347 211.674 187.682L211.04 187.857L206.306 189.146L200.243 190.78C200.054 191.505 199.743 192.193 199.323 192.814C197.847 195.026 195.432 196.027 193.928 195.017C192.423 194.007 192.4 191.414 193.877 189.197C194.094 188.871 194.337 188.564 194.604 188.279L187.184 171.553C186.292 172.163 185.303 172.319 184.594 171.847C183.527 171.14 183.509 169.285 184.557 167.729Z" fill="#D7E8F0"/>
<path d="M241.004 168.609H252.504C253.03 168.608 253.544 168.456 253.984 168.169C254.424 167.882 254.771 167.474 254.984 166.994C255.047 166.849 255.081 166.693 255.085 166.535C255.083 166.222 254.958 165.921 254.736 165.7C254.513 165.479 254.212 165.355 253.898 165.355H241.676C242.251 166.314 241.961 167.659 241.004 168.609Z" fill="#D7E8F0"/>
<path d="M233.571 167.435C233.572 167.746 233.697 168.046 233.918 168.266C234.14 168.486 234.44 168.61 234.753 168.61H241.004C241.961 167.66 242.251 166.315 241.676 165.346H236.156C235.63 165.346 235.117 165.498 234.676 165.784C234.236 166.07 233.888 166.478 233.676 166.957C233.609 167.108 233.572 167.27 233.571 167.435Z" fill="#3FBDF1"/>
<path d="M236.446 168.611C236.479 168.674 236.517 168.733 236.561 168.79C237.379 169.91 239.16 170.015 240.54 169.01C240.703 168.889 240.857 168.756 241 168.611C241.956 167.661 242.246 166.316 241.671 165.347C241.641 165.284 241.604 165.224 241.561 165.168C240.747 164.044 238.966 163.947 237.586 164.943C237.423 165.066 237.269 165.201 237.126 165.347C236.17 166.302 235.88 167.638 236.446 168.611Z" fill="white"/>
<path d="M230.7 174.637C230.702 174.95 230.828 175.248 231.051 175.468C231.273 175.689 231.574 175.812 231.887 175.812H243.953C243.368 174.839 243.658 173.517 244.615 172.549H233.267C232.741 172.549 232.225 172.702 231.785 172.989C231.344 173.276 230.996 173.684 230.783 174.164C230.725 174.315 230.697 174.475 230.7 174.637Z" fill="#3FBDF1"/>
<path d="M243.934 175.812H249.611C250.136 175.812 250.649 175.66 251.089 175.375C251.529 175.09 251.877 174.683 252.09 174.205C252.155 174.06 252.191 173.904 252.196 173.746C252.196 173.591 252.166 173.437 252.107 173.294C252.048 173.151 251.961 173.02 251.851 172.911C251.741 172.801 251.61 172.714 251.467 172.655C251.323 172.596 251.169 172.566 251.014 172.566H244.597C243.64 173.503 243.35 174.838 243.934 175.812Z" fill="#D7E8F0"/>
<path d="M243.934 175.812C243.961 175.875 243.995 175.935 244.035 175.991C244.85 177.116 246.63 177.217 248.01 176.216C248.173 176.093 248.327 175.957 248.47 175.812C249.417 174.857 249.707 173.517 249.142 172.548C249.108 172.487 249.071 172.427 249.031 172.369C248.208 171.25 246.427 171.149 245.047 172.154C244.884 172.273 244.73 172.405 244.587 172.548C243.64 173.503 243.35 174.839 243.934 175.812Z" fill="white"/>
<path d="M239.9 182.963H247.122C247.648 182.962 248.162 182.81 248.603 182.524C249.044 182.238 249.392 181.831 249.606 181.352C249.669 181.207 249.704 181.051 249.707 180.893C249.707 180.579 249.582 180.277 249.36 180.054C249.137 179.831 248.836 179.705 248.521 179.704H240.586C241.156 180.673 240.862 182.008 239.9 182.963Z" fill="#3FBDF1"/>
<path d="M228.207 181.793C228.207 181.947 228.239 182.1 228.298 182.242C228.358 182.384 228.445 182.514 228.555 182.623C228.665 182.731 228.795 182.817 228.938 182.876C229.081 182.934 229.235 182.964 229.389 182.963H239.9C240.848 182.008 241.142 180.668 240.572 179.695H230.792C230.265 179.695 229.75 179.848 229.31 180.136C228.869 180.424 228.522 180.833 228.313 181.315C228.245 181.465 228.209 181.628 228.207 181.793Z" fill="#D7E8F0"/>
<path d="M235.355 182.963C235.389 183.026 235.427 183.086 235.47 183.142C236.285 184.267 238.06 184.363 239.445 183.363C239.608 183.241 239.762 183.108 239.905 182.963C240.852 182.009 241.147 180.668 240.576 179.695C240.546 179.632 240.509 179.572 240.466 179.516C239.643 178.401 237.867 178.304 236.482 179.3C236.32 179.421 236.166 179.553 236.022 179.695C235.075 180.65 234.78 181.995 235.355 182.963Z" fill="white"/>
<path d="M193.215 216.69H200.441C200.966 216.689 201.48 216.536 201.92 216.25C202.36 215.964 202.707 215.557 202.921 215.079C202.984 214.933 203.018 214.777 203.022 214.62C203.022 214.306 202.897 214.004 202.674 213.782C202.452 213.56 202.15 213.435 201.835 213.435H193.9C194.457 214.399 194.162 215.735 193.215 216.69Z" fill="#3FBDF1"/>
<path d="M164.538 215.52C164.539 215.674 164.57 215.826 164.63 215.969C164.689 216.111 164.777 216.24 164.887 216.349C164.996 216.458 165.126 216.544 165.269 216.602C165.413 216.661 165.566 216.691 165.721 216.69H193.215C194.162 215.735 194.457 214.395 193.886 213.427H167.124C166.598 213.426 166.083 213.579 165.642 213.865C165.202 214.153 164.855 214.561 164.644 215.042C164.578 215.193 164.542 215.355 164.538 215.52Z" fill="#D7E8F0"/>
<path d="M188.656 216.691C188.69 216.753 188.728 216.813 188.771 216.87C189.585 217.994 191.361 218.09 192.746 217.094C192.908 216.971 193.062 216.836 193.206 216.691C194.153 215.736 194.448 214.396 193.877 213.427C193.847 213.363 193.81 213.303 193.767 213.248C192.943 212.128 191.168 212.032 189.783 213.028C189.619 213.148 189.466 213.282 189.323 213.427C188.38 214.377 188.081 215.722 188.656 216.691Z" fill="white"/>
<path d="M11.3629 234.367C11.3629 234.367 -3.8171 302.79 35.2323 317.083C74.2817 331.377 179.764 317.951 135.926 268.581C92.0883 219.211 11.3629 234.367 11.3629 234.367Z" fill="#2E2E2E"/>
<path d="M200.837 82.355C206.144 81.2502 211.525 80.5342 216.937 80.2115C217.052 80.2115 217.149 80.2115 217.25 80.2115C220.806 79.9774 227.034 79.8764 230.59 79.8397" stroke="black" stroke-width="4.05" stroke-miterlimit="10"/>
<path d="M174.529 93.6794C174.493 93.7022 174.47 93.7296 174.433 93.7524" stroke="black" stroke-width="4.05" stroke-miterlimit="10"/>
<path d="M235.047 64.9125C232.333 66.3354 229.214 65.3715 228.018 62.948" stroke="black" stroke-width="4.05" stroke-miterlimit="10"/>
<path d="M219.292 30.3269C219.17 32.4328 219.711 34.524 220.84 36.3067C221.97 38.09 223.631 39.4752 225.59 40.2688C226.004 39.5101 226.597 38.8643 227.319 38.3869C230.369 36.4178 229.826 41.678 238.106 40.2918C249.583 38.3594 252.509 42.3481 252.509 42.3481C252.762 42.6969 252.049 44.9736 251.948 45.3913C251.488 47.8377 251.028 50.2704 250.609 52.7353C250.339 54.2284 250.066 55.7123 249.79 57.1876C249.999 56.9856 250.22 56.797 250.453 56.623C252.339 53.6854 255.103 50.3898 258.116 53.0795C258.721 53.6395 259.185 54.3349 259.469 55.1083C260.849 58.8492 258.208 61.2543 255.122 62.6956C254.307 63.1872 253.442 63.5888 252.541 63.8936C252.693 64.8391 253.323 68.6075 253.323 68.6167C253.387 69.0022 261.051 64.2883 261.69 63.7146C262.846 62.1902 263.736 60.4837 264.326 58.6656C266.709 51.1655 266.304 41.4714 261.506 35.3024C260.315 33.774 261.111 32.8927 261.456 31.4055C261.472 31.3252 261.464 31.2421 261.433 31.1669C261.402 31.0911 261.349 31.0269 261.28 30.9819C261.212 30.9369 261.131 30.9135 261.05 30.9144C260.968 30.9158 260.888 30.941 260.821 30.9878C258.236 32.6081 253.558 30.9511 253.558 30.9511C238.378 21.8536 230.599 27.4811 226.878 27.7657C225.368 27.8689 223.87 27.4434 222.641 26.5631C222.425 26.989 222.096 27.348 221.691 27.6018C221.286 27.8556 220.819 27.9947 220.341 28.0043L220.194 28.7938C220.081 29.3937 219.762 29.9358 219.292 30.3269Z" fill="#3FBDF1"/>
<path d="M225.599 40.2872C223.64 39.494 221.979 38.1088 220.85 36.3256C219.72 34.5423 219.179 32.4511 219.301 30.3453C219.346 29.5365 219.463 28.7332 219.651 27.9447L219.784 27.9722C219.966 28.0131 220.151 28.0268 220.336 28.0135C220.815 28.0044 221.282 27.8653 221.687 27.6114C222.092 27.3576 222.42 26.9982 222.636 26.5723C222.763 26.3354 222.852 26.0798 222.898 25.8149L223.607 21.9732C223.607 21.9732 225.907 25.0805 229.587 24.7913C233.267 24.5022 241.045 18.8749 256.267 27.9768C256.267 27.9768 259.919 29.3217 262.504 27.7014C262.572 27.6551 262.651 27.6293 262.733 27.6284C262.815 27.6275 262.895 27.6509 262.964 27.6959C263.032 27.7409 263.085 27.8051 263.117 27.8804C263.148 27.9562 263.156 28.0392 263.139 28.1191C262.794 29.6017 263.024 30.7997 264.216 32.3281C269.013 38.4971 269.418 48.1912 267.035 55.6912C265.992 58.7996 264.14 61.5747 261.667 63.7329C261.028 64.3067 253.364 69.0206 253.3 68.635C253.3 68.635 252.67 64.8575 252.518 63.9119L252.481 63.6962L252.697 63.6319C253.517 63.379 254.319 63.0724 255.098 62.7139C258.185 61.2727 260.839 58.8675 259.445 55.1267C259.162 54.3537 258.698 53.6583 258.093 53.0979C255.08 50.4081 252.315 53.7038 250.429 56.6414C250.065 57.199 249.766 57.7967 249.537 58.4223C249.611 58.0184 249.684 57.6236 249.762 57.2197C250.038 55.7417 250.311 54.2578 250.581 52.7674C251.041 50.3163 251.469 47.8836 251.92 45.4234C252.003 45.0057 252.734 42.7291 252.481 42.3802C252.481 42.3802 249.555 38.3915 238.078 40.3239C229.798 41.7009 230.341 36.45 227.292 38.4191C226.57 38.8964 225.976 39.5427 225.562 40.301C225.434 40.5484 225.32 40.8026 225.222 41.0629C225.205 41.0955 225.191 41.1295 225.18 41.1639C224.973 41.733 224.784 42.3068 224.6 42.8668C222.88 48.3243 221.744 54.2178 222.351 59.9507C223.092 66.9 228.165 75.0702 236.238 74.3771C238.779 74.0802 241.256 73.3861 243.58 72.3208" stroke="black" stroke-width="4.05" stroke-miterlimit="10"/>
<path d="M226.48 55.0982C227.269 55.0757 227.888 54.2853 227.861 53.3324C227.834 52.3795 227.172 51.6254 226.382 51.6479C225.592 51.6699 224.974 52.4603 225.001 53.4132C225.028 54.3661 225.69 55.1202 226.48 55.0982Z" fill="black"/>
<path d="M237.289 57.9972C238.079 57.9747 238.697 57.1844 238.671 56.2319C238.643 55.279 237.981 54.5244 237.192 54.5469C236.402 54.5694 235.784 55.3598 235.81 56.3122C235.837 57.2651 236.499 58.0197 237.289 57.9972Z" fill="black"/>
<path d="M232.623 58.633C232.623 58.633 228.441 59.551 228.865 57.412C228.993 56.7419 230.042 50.1598 230.042 50.1598C230.042 50.1598 228.092 46.24 222.99 47.1534" stroke="black" stroke-width="4.05" stroke-miterlimit="10"/>
<path d="M234.5 49.5741C234.5 49.5741 241.128 48.4496 243.668 53.7327" stroke="black" stroke-width="4.05" stroke-miterlimit="10"/>
<path d="M230.663 79.7837C225.442 82.5377 222.655 89.1657 224.84 93.9622C228.483 101.953 238.074 104.303 246 101.995C254.813 99.4243 261.29 91.3184 260.904 82.0236" stroke="black" stroke-width="4.05" stroke-miterlimit="10"/>
<path d="M262.274 232.168C277.413 197.064 282.91 135.104 282.91 135.104V221.552C282.91 222.946 283.184 224.327 283.719 225.615C284.253 226.904 285.037 228.074 286.025 229.06C287.013 230.046 288.186 230.828 289.477 231.362C290.769 231.895 292.152 232.169 293.55 232.168H327.13C328.389 232.188 329.611 231.743 330.561 230.919C331.51 230.095 332.122 228.949 332.277 227.702C332.345 227.016 332.267 226.322 332.05 225.667C331.832 225.012 331.48 224.41 331.015 223.899C330.55 223.388 329.982 222.981 329.35 222.702C328.717 222.423 328.033 222.28 327.341 222.282H313.587C313.039 222.28 312.498 222.153 312.006 221.911C311.514 221.669 311.084 221.319 310.748 220.886C310.413 220.452 310.181 219.949 310.07 219.413C309.96 218.877 309.973 218.323 310.11 217.793C318.39 185.204 323.51 146.951 312.732 113.099C310.505 106.113 305.708 99.8892 300.04 95.0789C293.536 89.5342 285.518 86.9914 277.303 85.1095C271.884 83.8702 266.418 82.8447 260.904 82.0341C260.887 82.0397 260.87 82.0397 260.853 82.0341C260.816 82.0341 260.779 82.0341 260.756 82.0341H260.72H260.669H260.595" stroke="black" stroke-width="4.05" stroke-miterlimit="10"/>
<path d="M257.435 66.4369L256.828 77.4024C256.77 78.4741 257.107 79.5298 257.776 80.3703C258.444 81.2107 259.399 81.778 260.457 81.9648H260.595C260.619 81.9584 260.645 81.9584 260.669 81.9648H260.692H260.756" stroke="black" stroke-width="4.05" stroke-miterlimit="10"/>
<path d="M260.853 82.0153H260.756H260.72H260.692H260.669H260.595H260.457C259.399 81.8285 258.444 81.2612 257.776 80.4208C257.107 79.5799 256.77 78.5242 256.828 77.4529L257.435 66.4874" stroke="black" stroke-width="4.05" stroke-miterlimit="10"/>
<path d="M231.533 73.6941C231.234 73.5748 231.533 85.9402 224.141 91.3105" stroke="black" stroke-width="4.05" stroke-miterlimit="10"/>
<path d="M132.564 232.172H108.883" stroke="black" stroke-width="4.05" stroke-miterlimit="10"/>
<path d="M363.912 232.172H169.433" stroke="black" stroke-width="4.05" stroke-miterlimit="10"/>
<path d="M64.0651 116.077C64.2932 120.706 64.1272 125.347 63.5683 129.948C62.8507 135.355 57.8413 142.226 56.7557 147.573C55.2055 155.266 57.5515 163.216 60.7715 170.358C64.6631 178.992 70.7949 187.676 70.1969 197.563C69.8905 201.869 68.6066 206.049 66.4419 209.787C64.2776 213.524 61.289 216.721 57.7033 219.136C52.7918 222.415 47.1812 224.505 41.3181 225.241C40.4993 225.337 39.6667 225.415 38.8341 225.438C38.3741 225.438 37.9141 225.388 37.4541 225.351C21.8601 224.034 5.86585 212.164 5.90265 195.64C5.90265 185.083 13.9434 176.821 15.3004 166.576C16.133 160.311 14.2931 153.802 15.9951 147.72C18.7551 138.008 29.4225 132.711 34.0961 123.77C37.5369 117.169 38.0981 109.467 40.8213 102.545C44.6117 92.9065 50.6653 81.8905 58.9453 80.9725C61.3478 81.2442 63.6704 82.0002 65.7717 83.194C70.9053 85.948 72.2117 86.1225 73.2559 88.5781C74.3231 91.1439 72.7315 93.8842 70.0727 94.7058C65.5831 96.1241 63.6465 105.226 64.0651 116.077Z" fill="#3FBDF1"/>
<path d="M68.5778 84.6876C82.0558 80.7907 90.621 86.5236 96.7482 93.1332C102.875 99.7428 102.59 107.247 102.59 107.247" stroke="black" stroke-width="4.05" stroke-miterlimit="10"/>
<path d="M110.383 213.959C110.179 224.466 108.845 234.921 106.404 245.143" stroke="black" stroke-width="4.05" stroke-miterlimit="10"/>
<path d="M143.875 299.525C138.939 307.998 127.232 314.016 112.908 317.761C87.4883 324.408 53.8347 323.889 35.2415 317.077C-3.83096 302.789 11.3582 234.366 11.3582 234.366C11.3582 234.366 78.9369 221.674 123.998 257.316C128.303 260.711 132.299 264.479 135.94 268.575C140.922 274.198 143.981 279.343 145.425 284.043C147.196 289.9 146.488 295.059 143.875 299.525Z" stroke="black" stroke-width="4.05" stroke-miterlimit="10"/>
<path d="M117.973 316.607C117.973 316.607 94.2963 382.184 134.073 398.933C173.849 415.682 -11.9959 417.912 29.0269 398.933C70.0497 379.953 46.4701 320.614 46.4701 320.614" stroke="black" stroke-width="4.05" stroke-miterlimit="10"/>
<path d="M166.135 93.7524C165.642 92.2515 165.845 87.0327 166.006 84.0859C166.037 83.5296 166.284 83.0068 166.694 82.629C167.104 82.2513 167.646 82.0475 168.205 82.0617L215.46 82.4748C216.257 82.4821 217.019 82.803 217.58 83.3675C218.14 83.9326 218.455 84.6954 218.455 85.4904V120.875C218.455 121.272 218.376 121.665 218.224 122.032C218.071 122.399 217.847 122.732 217.565 123.012C217.283 123.292 216.948 123.514 216.58 123.665C216.212 123.816 215.817 123.892 215.419 123.89L169.368 123.721C168.701 123.693 168.071 123.409 167.608 122.929C167.146 122.448 166.889 121.807 166.889 121.141V118.442C170.164 119.966 176.356 120.434 176.356 120.434C178.559 120.374 182.041 120.108 183.95 119.016C185.698 118.015 187.906 116.578 188.205 114.403C188.321 113.561 188.098 112.709 187.585 112.031C187.072 111.353 186.311 110.905 185.468 110.786C184.962 110.685 184.438 110.722 183.95 110.891" stroke="black" stroke-width="4.05" stroke-miterlimit="10"/>
<path d="M212.254 191.809C212.232 192.44 212.019 193.05 211.642 193.557C210.561 194.884 208.422 194.622 206.969 194.214C200.855 192.479 197.185 199.088 194.875 203.541C189.043 214.795 180.293 225.251 169.378 232.173C168.669 232.632 167.947 233.063 167.216 233.486C156.548 239.627 142.725 238.484 132.407 232.109L145.6 199.772L146.907 200.814C154.874 207.089 164.681 203.568 171.471 197.376C173.355 195.663 175.018 193.722 176.42 191.597C178.757 188.013 180.758 184.143 183.955 181.229C188.38 177.194 194.857 176.405 200.451 178.112C206.044 179.82 212.76 185.309 212.254 191.809Z" fill="white"/>
<path d="M212.199 189.518C212.199 189.518 210.699 181.595 197.18 187.778" stroke="black" stroke-width="4.05" stroke-miterlimit="10"/>
<path d="M204.678 180.008C204.678 180.008 196.251 177.318 191.559 183.744" stroke="black" stroke-width="4.05" stroke-miterlimit="10"/>
<path d="M34.5653 225.367C36.8152 225.567 39.0802 225.529 41.3227 225.256C47.1845 224.511 52.7919 222.417 57.7033 219.137C61.289 216.723 64.2772 213.526 66.4419 209.788C68.6062 206.05 69.8906 201.871 70.1969 197.565C70.7949 187.673 64.6769 178.989 60.7715 170.355C57.5515 163.209 55.2055 155.259 56.7603 147.575C57.8413 142.223 62.8415 135.356 63.5637 129.945C64.1254 125.344 64.2947 120.704 64.0697 116.074C63.6511 105.218 65.5831 96.1076 70.0727 94.7214C72.7315 93.8998 74.3277 91.155 73.2559 88.5937C72.2301 86.1335 70.9099 85.9866 65.7717 83.2005C52.3765 75.9299 43.0615 89.4842 37.9187 102.552C35.1909 109.478 34.6389 117.171 31.1935 123.771C26.5199 132.717 15.8295 138.001 13.0971 147.731C11.3905 153.808 13.2305 160.322 12.4025 166.578C11.0501 176.818 3.02306 185.076 3.00006 195.642C2.96326 212.161 18.9759 224.04 34.5653 225.367Z" stroke="black" stroke-width="4.05" stroke-miterlimit="10"/>
<path d="M143.875 299.527C142.72 307.725 141 317.129 139.105 326.543C133.732 353.225 126.896 380.068 126.896 380.068" stroke="black" stroke-width="4.05" stroke-miterlimit="10"/>
<path d="M145.407 284.044C145.43 283.043 145.444 282.125 145.407 281.253C144.998 262.434 131.437 257.936 125.604 256.857C124.734 256.687 123.853 256.575 122.968 256.522" stroke="black" stroke-width="4.05" stroke-miterlimit="10"/>
<path d="M128.921 371.929C129.671 371.471 130.531 371.22 131.411 371.203C132.291 371.186 133.16 371.404 133.928 371.834C134.695 372.264 135.334 372.89 135.779 373.648C136.223 374.407 136.457 375.27 136.455 376.148C136.455 376.212 136.455 376.29 136.455 376.382C136.382 378.648 135.783 380.867 134.707 382.865C133.63 384.862 132.105 386.583 130.25 387.893L123.856 392.433" stroke="black" stroke-width="4.05" stroke-miterlimit="10"/>
<path d="M56.2865 153.642C57.1789 153.279 58.0897 152.958 59.0097 152.66C60.9463 149.089 60.6473 141.272 60.4633 138.431L62.3999 134.075C67.7451 137.352 74.8199 136.122 81.3841 133.841C82.3059 133.519 83.2025 133.13 84.0659 132.675C88.2335 130.765 94.0755 126.249 91.4535 123.917C88.8315 121.585 89.0155 117.096 90.6945 114.342C91.2051 113.498 92.1113 112.667 93.0543 112.929C93.6891 113.103 94.0985 113.695 94.4619 114.241C94.9219 114.925 95.3819 115.582 95.8419 116.252C96.0029 116.477 96.2651 116.711 96.5135 116.61C96.6188 116.541 96.7003 116.442 96.7481 116.325C97.5577 114.664 97.4059 112.281 97.5439 110.459C97.7049 108.288 97.8291 106.103 97.8935 103.923C97.9303 102.72 98.1787 101.431 99.4713 101.008C99.7321 100.908 100.013 100.868 100.291 100.892C100.57 100.916 100.839 101.003 101.079 101.146C101.319 101.29 101.523 101.486 101.676 101.719C101.828 101.953 101.925 102.219 101.96 102.495C102.901 107.771 103.039 113.157 102.369 118.473C101.734 124.041 100.589 129.948 97.0103 134.437C94.9716 137.027 92.2396 138.987 89.1305 140.092C86.1221 141.134 86.2187 144.756 86.2187 147.932V153.206C95.4693 155.079 104.159 157.337 111.344 163.763C116.096 168.098 120.567 172.729 124.73 177.629C137.835 192.974 140.669 195.851 146.98 200.813C154.947 207.088 164.759 203.567 171.544 197.375C173.425 195.662 175.085 193.72 176.485 191.597C178.821 188.012 180.822 184.142 184.015 181.228C188.444 177.193 194.921 176.404 200.515 178.111C206.108 179.819 212.834 185.308 212.3 191.808C212.278 192.438 212.066 193.047 211.693 193.556C210.612 194.883 208.473 194.621 207.019 194.213C200.901 192.478 197.235 199.087 194.921 203.54C189.093 214.794 180.339 225.25 169.423 232.172C168.715 232.631 167.997 233.063 167.261 233.485C155.067 240.508 138.718 238.001 128.23 229.056L102.93 207.625" stroke="black" stroke-width="4.05" stroke-miterlimit="10"/>
<path d="M59.0098 152.66C59.0098 152.66 71.094 148.933 86.2188 153.22" stroke="black" stroke-width="4.05" stroke-miterlimit="10"/>
<path d="M166.889 118.442C166.889 118.442 166.981 134.048 170.712 140.056" stroke="black" stroke-width="4.05" stroke-miterlimit="10"/>
<path d="M179.148 47.012C176.278 51.9003 176.411 55.3704 177.156 61.0023C177.218 61.482 177.142 61.969 176.938 62.4078C176.734 62.8466 176.41 63.2188 176.003 63.4818C175.597 63.7448 175.124 63.8876 174.639 63.894C174.155 63.9 173.678 63.7696 173.265 63.5176C156.705 54.0072 141.207 61.5302 121.436 56.8713C114.178 55.1684 105.129 51.6479 98.9239 45.9792C96.8654 42.9283 95.7665 39.3338 95.7683 35.6563C95.7683 20.2384 116.878 7.73524 142.905 7.73524C159.589 7.73524 174.244 12.8714 182.626 20.6102C182.626 20.6102 182.626 20.6102 182.649 20.6377C184.751 23.6543 185.899 27.2314 185.942 30.9057C185.942 36.455 181.821 42.422 179.148 47.012Z" fill="#D7E8F0"/>
<path d="M185.869 30.9153V31.3055C185.772 36.7079 183.063 41.7294 179.847 46.0761C177.694 48.9862 175.141 52.2129 175.749 55.7794C176.015 57.3491 176.894 58.7766 177.129 60.3694C177.363 61.9621 176.508 63.9128 174.911 63.9955C173.899 64.046 173.035 63.3253 172.234 62.7057C167.482 59.0337 161.309 57.6567 155.306 57.418C149.303 57.1793 143.309 57.9642 137.302 58.134C128.645 58.3819 119.849 57.3032 111.85 54.003C104.66 51.0104 98.1051 46.145 93.7903 39.6685C89.5537 33.2838 92.0607 24.0211 96.5779 18.4717C100.819 13.2667 106.956 9.93435 113.253 7.58886C130.186 1.27761 149.515 1.42908 166.217 8.33703C171.176 10.3658 175.96 13.0464 179.686 16.9111C183.32 20.6795 185.836 25.7011 185.869 30.9153Z" stroke="black" stroke-width="4.05" stroke-miterlimit="10"/>
<path d="M116.381 37.0568C119.973 37.0568 122.885 34.1513 122.885 30.5665C122.885 26.9822 119.973 24.0762 116.381 24.0762C112.789 24.0762 109.876 26.9822 109.876 30.5665C109.876 34.1513 112.789 37.0568 116.381 37.0568Z" fill="white"/>
<path d="M137.412 37.0568C141.004 37.0568 143.917 34.1513 143.917 30.5665C143.917 26.9822 141.004 24.0762 137.412 24.0762C133.82 24.0762 130.908 26.9822 130.908 30.5665C130.908 34.1513 133.82 37.0568 137.412 37.0568Z" fill="white"/>
<path d="M158.853 37.0568C162.445 37.0568 165.357 34.1513 165.357 30.5665C165.357 26.9822 162.445 24.0762 158.853 24.0762C155.261 24.0762 152.348 26.9822 152.348 30.5665C152.348 34.1513 155.261 37.0568 158.853 37.0568Z" fill="white"/>
<g opacity="0.54">
<path opacity="0.54" d="M283.839 302.676L281.194 340.773C279.985 343.073 278.473 345.201 276.7 347.103C276.507 347.034 276.314 346.96 276.125 346.873C275.771 346.754 275.421 346.611 275.09 346.474C269.731 344.128 265.66 339.759 264.473 334.806C263.401 330.468 264.367 325.782 262.297 321.706C259.772 316.685 252.904 313.536 252.062 307.872C251.271 302.57 256.055 297.71 255.282 292.514C254.362 286.638 247.163 283.155 245.816 277.417C244.974 273.851 245.728 269.756 245.411 266.084C245.061 261.977 244.37 257.905 243.345 253.912C254.004 253.141 264.85 259.002 268.305 267.397C271.125 274.282 269.427 282.301 273.825 288.562C276.226 291.954 280.224 294.492 282.294 298.04C282.932 299.147 283.398 300.345 283.674 301.593C283.674 301.68 283.674 301.767 283.706 301.836C283.706 301.978 283.743 302.079 283.761 302.185C283.807 302.501 283.839 302.676 283.839 302.676Z" fill="#3FBDF1"/>
<path opacity="0.54" d="M283.858 302.643C283.858 302.643 283.825 302.487 283.789 302.184C283.82 302.305 283.843 302.427 283.858 302.551C283.864 302.565 283.868 302.581 283.868 302.597C283.868 302.613 283.864 302.628 283.858 302.643Z" fill="#3FBDF1"/>
</g>
<path d="M319.071 287.776C317.691 292.724 310.133 295.731 309.222 300.803C308.417 305.301 313.394 309.496 312.571 314.063C311.692 318.961 304.539 321.669 301.913 325.997C299.774 329.513 300.772 333.557 299.668 337.298C298.389 341.548 294.148 345.344 288.554 347.355C288.205 347.478 287.874 347.598 287.519 347.703C287.326 347.758 287.115 347.827 286.921 347.878C285.081 346.359 282.942 343.683 281.208 340.795L283.839 302.675C285.891 300.94 288.237 299.352 289.87 297.424C291.641 295.345 292.464 293.073 292.989 290.691H293.044V290.429C293.812 286.67 293.881 282.732 295.652 279.165C299.245 271.909 310.519 266.851 321.615 267.516C320.568 270.944 319.851 274.463 319.476 278.027C319.158 281.181 319.94 284.715 319.071 287.776Z" fill="#3FBDF1"/>
<path d="M293.062 290.397V290.658H293.007L293.062 290.397Z" fill="#3FBDF1"/>
<path d="M293.062 290.397L293.007 290.658C292.483 293.041 291.659 295.313 289.888 297.392C288.255 299.32 285.909 300.908 283.858 302.643C283.866 302.619 283.866 302.593 283.858 302.569C283.844 302.446 283.82 302.323 283.789 302.202C283.789 302.097 283.752 301.996 283.734 301.853C283.734 301.785 283.734 301.697 283.701 301.61C283.425 300.363 282.96 299.165 282.321 298.057C280.251 294.509 276.254 291.971 273.853 288.579C273.853 288.579 274.938 270.701 284.106 265.262C292.8 260.121 293.062 287.422 293.062 290.397Z" fill="#3FBDF1"/>
<path d="M293.062 290.397V290.658H293.007L293.062 290.397Z" fill="#3FBDF1"/>
<path d="M283.839 302.569V302.675C283.839 302.675 283.807 302.519 283.77 302.216C283.801 302.332 283.824 302.45 283.839 302.569Z" fill="#3FBDF1"/>
<path d="M283.021 302.675C285.063 300.94 287.437 299.328 289.074 297.405C293.674 291.994 291.899 285.076 294.847 279.142C298.435 271.894 309.719 266.84 320.81 267.501C319.757 270.928 319.039 274.448 318.666 278.012C318.335 281.189 319.126 284.718 318.257 287.794C316.844 292.742 309.314 295.744 308.399 300.816C307.585 305.309 312.576 309.504 311.752 314.067C310.874 318.969 303.725 321.677 301.094 326.001C298.946 329.521 299.953 333.556 298.84 337.306C297.492 341.827 292.8 345.821 286.687 347.707C286.494 347.771 286.282 347.84 286.084 347.891C284.244 346.371 282.105 343.695 280.366 340.804" stroke="black" stroke-width="4.05" stroke-miterlimit="10"/>
<path d="M314.038 273.179C297.501 290.937 289.723 328.378 286.696 347.711C286.448 349.341 286.236 350.832 286.034 352.177" stroke="black" stroke-width="4.05" stroke-miterlimit="10"/>
<path d="M315.565 363.065L307.98 407.859C307.8 409.085 307.19 410.209 306.259 411.03C305.327 411.851 304.135 412.316 302.892 412.343H263.112C261.857 412.315 260.654 411.84 259.719 411.004C258.784 410.168 258.18 409.027 258.015 407.786L251 363.061L315.565 363.065Z" stroke="black" stroke-width="4.05" stroke-miterlimit="10"/>
<path d="M322.792 358.063C322.724 359.392 322.155 360.646 321.2 361.573C320.245 362.501 318.973 363.034 317.64 363.067H249.05C247.732 363.035 246.473 362.513 245.521 361.602C244.57 360.691 243.994 359.459 243.907 358.146C243.617 354.933 246 352.179 249.05 352.179H317.64C320.662 352.184 323.036 354.896 322.792 358.063Z" stroke="black" stroke-width="4.05" stroke-miterlimit="10"/>
<path d="M275.886 347.092C278.83 344.178 282.436 337.678 284.032 332.372C285.348 327.998 283.034 323.495 282.501 319.006C281.673 311.979 285.169 304.424 281.484 298.053C279.428 294.5 275.43 291.976 273.029 288.575C268.609 282.309 270.306 274.295 267.482 267.424C264.027 259.02 253.185 253.158 242.531 253.938C243.549 257.933 244.24 262.004 244.597 266.111C244.914 269.783 244.137 273.877 244.992 277.439C246.34 283.177 253.571 286.651 254.459 292.531C255.241 297.727 250.452 302.592 251.239 307.885C252.085 313.558 258.944 316.693 261.479 321.723C263.539 325.804 262.573 330.486 263.641 334.819C264.979 340.235 269.722 344.995 275.886 347.092Z" stroke="black" stroke-width="4.05" stroke-miterlimit="10"/>
<path d="M249.036 260.52C264.91 281.102 272.381 324.473 275.32 346.863C275.569 348.805 275.78 350.585 275.969 352.178" stroke="black" stroke-width="4.05" stroke-miterlimit="10"/>
<path d="M273.02 288.574C273.02 288.574 274.11 270.696 283.274 265.261C292.437 259.827 292.244 290.282 292.244 290.282" stroke="black" stroke-width="4.05" stroke-miterlimit="10"/>
<path d="M283.021 302.675C283.021 302.675 281.148 292.448 284.433 282.391" stroke="black" stroke-width="4.05" stroke-miterlimit="10"/>
</svg>
