<svg width="19" height="19" viewBox="0 0 19 19" xmlns="http://www.w3.org/2000/svg">
<path fill-rule="evenodd" clip-rule="evenodd" d="M15 7.5C15 11.03 11.9278 14 8 14C4.07223 14 1 11.03 1 7.5C1 3.96996 4.07223 1 8 1C11.9278 1 15 3.96996 15 7.5ZM12.5779 13.6515C11.2808 14.5014 9.70253 15 8 15C3.58172 15 0 11.6421 0 7.5C0 3.35786 3.58172 0 8 0C12.4183 0 16 3.35786 16 7.5C16 9.34623 15.2884 11.0367 14.1084 12.3434L18.5266 16.4455C18.9313 16.8213 18.9548 17.454 18.579 17.8588C18.2033 18.2635 17.5705 18.287 17.1658 17.9112L12.5779 13.6515Z" />
</svg>
