<svg width="380" height="79" viewBox="0 0 380 79" fill="none" xmlns="http://www.w3.org/2000/svg">
<ellipse cx="12" cy="8.5" rx="9" ry="8.5" fill="#1D99DF"/>
<path d="M5.376 65V20.968H19.52V65H5.376ZM52.011 30.44C55.9363 30.44 58.8803 31.528 60.843 33.704C62.8057 35.88 63.787 39.016 63.787 43.112V65H51.051V44.648C51.051 43.1973 50.667 42.0453 49.899 41.192C49.1737 40.296 48.1283 39.848 46.763 39.848C45.1843 39.848 43.9043 40.36 42.923 41.384C41.9417 42.408 41.451 43.6667 41.451 45.16V65H28.715V31.208H39.147L39.979 36.328C41.3017 34.536 43.0297 33.1067 45.163 32.04C47.339 30.9733 49.6217 30.44 52.011 30.44ZM93.9305 31.208V39.848H86.7625V52.712C86.7625 54.248 87.0185 55.3787 87.5305 56.104C88.0425 56.7867 88.9812 57.128 90.3465 57.128H93.9305V64.616C92.9065 64.9573 91.5838 65.2347 89.9625 65.448C88.3412 65.6613 86.9332 65.768 85.7385 65.768C81.9838 65.768 79.0825 65.0853 77.0345 63.72C75.0292 62.3547 74.0265 60.0293 74.0265 56.744V39.848H69.2905V31.208H74.5385L77.2905 20.968H86.7625V31.208H93.9305ZM117.312 30.44C123.499 30.44 128.213 31.8907 131.456 34.792C134.741 37.6933 136.384 42.1307 136.384 48.104V50.28H111.04C111.04 52.712 111.573 54.5467 112.64 55.784C113.749 57.0213 115.477 57.64 117.824 57.64C119.957 57.64 121.515 57.192 122.496 56.296C123.52 55.4 124.032 54.2053 124.032 52.712H136.384C136.384 56.808 134.827 60.008 131.712 62.312C128.597 64.616 124.053 65.768 118.08 65.768C111.808 65.768 106.944 64.3173 103.488 61.416C100.032 58.472 98.304 54.0347 98.304 48.104C98.304 42.3013 99.9893 37.9067 103.36 34.92C106.731 31.9333 111.381 30.44 117.312 30.44ZM117.824 38.568C113.813 38.568 111.573 40.4667 111.104 44.264H123.52C123.52 42.5147 123.008 41.128 121.984 40.104C121.003 39.08 119.616 38.568 117.824 38.568ZM165.824 30.44C169.749 30.44 172.693 31.528 174.656 33.704C176.618 35.88 177.6 39.016 177.6 43.112V65H164.864V44.648C164.864 43.1973 164.48 42.0453 163.712 41.192C162.986 40.296 161.941 39.848 160.576 39.848C158.997 39.848 157.717 40.36 156.736 41.384C155.754 42.408 155.264 43.6667 155.264 45.16V65H142.528V31.208H152.96L153.792 36.328C155.114 34.536 156.842 33.1067 158.976 32.04C161.152 30.9733 163.434 30.44 165.824 30.44ZM207.743 31.208V39.848H200.575V52.712C200.575 54.248 200.831 55.3787 201.343 56.104C201.855 56.7867 202.794 57.128 204.159 57.128H207.743V64.616C206.719 64.9573 205.396 65.2347 203.775 65.448C202.154 65.6613 200.746 65.768 199.551 65.768C195.796 65.768 192.895 65.0853 190.847 63.72C188.842 62.3547 187.839 60.0293 187.839 56.744V39.848H183.103V31.208H188.351L191.103 20.968H200.575V31.208H207.743ZM214.101 27.24V18.6H226.837V27.24H214.101ZM214.101 65V31.208H226.837V65H214.101ZM252.437 30.44C258.368 30.44 263.018 31.9547 266.389 34.984C269.802 37.9707 271.509 42.344 271.509 48.104C271.509 53.864 269.802 58.2587 266.389 61.288C263.018 64.2747 258.368 65.768 252.437 65.768C246.506 65.768 241.856 64.2747 238.485 61.288C235.114 58.3013 233.429 53.9067 233.429 48.104C233.429 42.3013 235.114 37.9067 238.485 34.92C241.856 31.9333 246.506 30.44 252.437 30.44ZM252.437 39.08C248.256 39.08 246.165 41.4907 246.165 46.312V49.96C246.165 54.7387 248.256 57.128 252.437 57.128C256.661 57.128 258.773 54.7387 258.773 49.96V46.312C258.773 41.4907 256.661 39.08 252.437 39.08ZM300.949 30.44C304.874 30.44 307.818 31.528 309.781 33.704C311.743 35.88 312.725 39.016 312.725 43.112V65H299.989V44.648C299.989 43.1973 299.605 42.0453 298.837 41.192C298.111 40.296 297.066 39.848 295.701 39.848C294.122 39.848 292.842 40.36 291.861 41.384C290.879 42.408 290.389 43.6667 290.389 45.16V65H277.653V31.208H288.085L288.917 36.328C290.239 34.536 291.967 33.1067 294.101 32.04C296.277 30.9733 298.559 30.44 300.949 30.44Z" fill="#212121"/>
<rect x="214" y="18" width="13" height="10" fill="#1D99DF"/>
</svg>
