<svg width="355" height="355" viewBox="0 0 355 355" fill="none" xmlns="http://www.w3.org/2000/svg">
<path d="M81.9 150.265C81.9 150.265 62.7904 93.7204 129.445 100.622C196.1 107.523 164.253 82.4953 189.44 66.964C214.627 51.4328 288.84 99.7518 257.792 146.356C226.744 192.961 307.41 150.329 324.237 220.413C334.621 263.662 308.859 295.495 287.605 313.54" stroke="#CCDDE2" stroke-width="5.47" stroke-miterlimit="10"/>
<path d="M294.105 259.506C289.096 230.499 271.36 204.542 242.545 195.251C235.173 192.888 227.636 191.078 219.995 189.838V189.877C219.597 192.285 218.653 194.57 217.237 196.558C214.233 200.672 210.094 204.052 205.302 205.813C200.41 207.623 194.35 207.857 189.809 205.01C187.076 203.299 184.424 200.285 183.945 197.034C183.398 193.37 185.265 189.902 187.892 187.48C165.627 187.662 144.682 191.325 127.897 195.496C128.479 197.932 129.285 200.309 130.304 202.596C131.731 205.785 133.747 208.676 136.247 211.116C139.365 208.027 142.095 204.571 144.376 200.821C146.559 201.536 148.484 202.876 149.911 204.676C151.338 206.475 152.205 208.654 152.403 210.942V211.06C153.283 219.37 145.282 225.615 138.558 229.456C130.791 233.922 122.132 237.266 113.626 240.045C110.119 241.195 105.561 242.175 101.858 240.975C101.459 240.848 101.07 240.693 100.694 240.51C97.0017 238.7 94.5309 234.905 92.6033 231.437C87.1114 221.585 83.5401 210.847 81.119 199.824C64.3169 201.972 62.3928 190.594 61.3952 187.804L47.0213 227.986C46.2672 230.874 46.1859 233.897 46.7827 236.822C47.3798 239.747 48.6397 242.496 50.4655 244.858C52.2909 247.22 54.6339 249.131 57.3138 250.446C59.994 251.761 62.9398 252.444 65.925 252.442H125.43L152.46 321.773L160.121 341.451H203.878C200.328 341.451 198.386 340.585 196.977 339.172C195.521 337.716 194.702 335.742 194.698 333.684C194.698 329.424 198.194 325.93 203.878 325.93H204.279C203.85 325.93 203.438 325.891 203.008 325.852C203.275 325.824 203.539 325.78 203.8 325.721C203.518 325.714 203.238 325.693 202.959 325.657C205.522 325.354 207.898 324.16 209.67 322.284C211.442 320.407 212.498 317.967 212.654 315.391C212.661 315.257 212.661 315.123 212.654 314.989V314.783C212.593 312.142 211.583 309.61 209.809 307.652C208.036 305.693 205.616 304.438 202.994 304.116C203.292 304.091 203.576 304.066 203.864 304.066C203.605 304.002 203.317 303.963 203.047 303.924C203.473 303.885 203.903 303.857 204.315 303.857L236.329 304.027L242.218 304.052H249.208C249.531 304.052 249.858 304.052 250.166 304.091L260.55 304.144L267.487 304.183C270.386 304.207 273.157 305.379 275.195 307.441C277.233 309.504 278.371 312.289 278.361 315.188C278.357 316.828 277.977 318.444 277.249 319.913C280.226 319.532 282.986 318.156 285.081 316.008C290.076 310.907 292.227 303.271 293.714 296.483C296.345 284.392 296.189 271.651 294.105 259.506ZM213.222 260.323C207.19 269.606 196.92 268.772 196.92 268.772C196.92 268.772 196.068 269.603 194.08 266.067C192.092 262.531 186.43 260.113 186.43 260.113C185.979 263.663 185.045 269.059 175.78 262.066C166.514 255.072 169.308 244.877 170.1 239.492C170.891 234.106 174.047 232.321 174.047 232.321L177.775 230.354C177.775 230.354 166.993 227.581 166.475 227.478C165.957 227.375 156.354 219.335 166.099 217.212C175.844 215.089 191.034 223.531 193.97 225.199C196.906 226.868 214.063 241.38 214.063 241.38C214.063 241.38 219.285 251.054 213.222 260.323Z" fill="#353642"/>
<path d="M81.1048 199.83C81.1048 199.83 89.2308 198.843 92.2731 193.043L89.6213 207.921C89.6213 207.921 121.948 196.916 127.876 195.496C127.876 195.496 129.786 207.811 137.39 211.116L145.236 201.14C145.236 201.14 155.073 203.625 152.382 217.03C149.691 230.435 112.473 241.639 106.161 241.38C99.8488 241.12 93.0541 237.237 86.0961 216.366L81.1048 199.83Z" fill="#353642"/>
<path d="M94.3427 166.688C96.4017 170.039 98.4714 173.383 100.609 176.685C101.926 178.719 104.325 181.619 101.773 183.746C100.942 184.382 99.939 184.754 98.8938 184.811C97.2537 184.956 95.532 184.562 94.5345 183.153L89.5645 174.917C88.574 173.274 87.001 172.065 85.1593 171.529C83.3172 170.994 81.3412 171.172 79.6245 172.027" stroke="black" stroke-width="5.47" stroke-miterlimit="10"/>
<path d="M113.14 177.536C114.439 180.624 113.559 182.616 112.039 183.617C109.554 185.246 106.228 184.465 104.467 182.087L94.3605 166.705" stroke="black" stroke-width="5.47" stroke-miterlimit="10"/>
<path d="M102.898 162.215C106.576 166.688 111.216 174.995 113.783 178.463C116.349 181.931 120.318 179.84 120.318 179.84C123.542 178.104 122.995 175.225 121.585 171.729C118.114 163.145 113.158 157.436 107.63 153.695C90.5017 142.107 72.9292 150.656 67.7 170.657L47.0213 227.986C46.2672 230.874 46.1859 233.897 46.7827 236.822C47.3798 239.747 48.6397 242.496 50.4655 244.858C52.2909 247.219 54.6339 249.131 57.3138 250.446C59.994 251.761 62.9398 252.443 65.925 252.441H125.43L160.131 341.454" stroke="black" stroke-width="5.47" stroke-miterlimit="10"/>
<path d="M124.145 167.791C128.405 166.315 128.21 159.52 122.164 157.227C115.487 154.692 103.63 151.106 100.651 150.212C100.633 150.198 100.61 150.189 100.587 150.187C100.378 150.123 100.232 150.07 100.119 150.045L99.9518 149.992" stroke="black" stroke-width="5.47" stroke-miterlimit="10"/>
<path d="M187.086 235.728C183.359 231.248 173.156 228.709 166.496 227.481C165.377 227.271 164.357 226.702 163.588 225.862C162.82 225.021 162.345 223.954 162.236 222.82C162.159 222.055 162.248 221.283 162.496 220.555C162.893 219.438 163.653 218.486 164.655 217.853C165.658 217.22 166.844 216.941 168.023 217.062C179.383 218.212 191.098 221.787 199.764 229.487C199.764 229.487 241.771 261.543 246.787 264.664C248.856 265.92 250.788 264.436 249.385 262.463L248.945 261.71C246.476 257.473 243.554 253.516 240.23 249.91" stroke="black" stroke-width="5.47" stroke-miterlimit="10"/>
<path d="M187.864 187.476C135.033 187.917 89.6212 207.917 89.6212 207.917L94.1546 182.506" stroke="black" stroke-width="5.47" stroke-miterlimit="10"/>
<path d="M269.919 325.773C269.919 325.773 264.164 324.47 262.634 329.078C261.104 333.686 259.506 341.017 270.508 341.45C281.509 341.883 275.048 339.721 274.413 336.161C273.777 332.6 269.919 325.773 269.919 325.773Z" fill="#353642"/>
<path d="M182.01 241.575C182.01 241.575 175.801 236.868 170.21 241.639C169.974 241.846 169.769 242.085 169.599 242.349" stroke="black" stroke-width="5.47" stroke-miterlimit="10"/>
<g opacity="0.77">
<path opacity="0.77" d="M104.446 182.07C106.221 184.452 109.544 185.229 112.018 183.596C113.52 182.602 114.4 180.622 113.133 177.561C113.364 177.899 113.573 178.197 113.779 178.47C116.342 181.953 120.315 179.855 120.315 179.855C123.538 178.119 122.995 175.24 121.585 171.739C120.206 168.272 118.397 164.993 116.2 161.977C117.638 160.631 119.345 159.272 121.145 159.868C123.087 160.514 123.63 162.95 123.85 164.98C123.953 165.925 124.056 166.858 124.159 167.802L125.714 181.704C126.232 186.319 126.751 191.002 127.876 195.507C128.458 197.942 129.263 200.319 130.283 202.607C131.71 205.796 133.726 208.686 136.226 211.127C139.344 208.038 142.074 204.581 144.355 200.832C146.538 201.546 148.463 202.886 149.89 204.686C151.316 206.485 152.183 208.664 152.382 210.953V211.07C153.262 219.38 145.26 225.625 138.537 229.466C130.769 233.932 122.111 237.276 113.605 240.056C110.098 241.206 105.539 242.186 101.837 240.986C101.438 240.859 101.049 240.703 100.672 240.521C96.9804 238.71 94.5096 234.915 92.582 231.447C83.352 214.851 79.518 195.794 77.498 176.922C81.5379 176.365 85.5636 175.744 89.5396 174.888C89.5396 174.888 89.5396 174.917 89.5645 174.927L94.1475 182.528L94.5238 183.16C95.5178 184.58 97.2396 184.96 98.8832 184.818C99.9283 184.766 100.932 184.394 101.759 183.753C104.308 181.623 101.915 178.733 100.594 176.699" fill="white"/>
<path opacity="0.77" d="M104.446 182.07C106.221 184.452 109.544 185.229 112.018 183.596C113.52 182.602 114.4 180.622 113.133 177.561C113.364 177.899 113.573 178.197 113.779 178.47C116.342 181.953 120.315 179.855 120.315 179.855C123.538 178.119 122.995 175.24 121.585 171.739C120.206 168.272 118.397 164.993 116.2 161.977C117.638 160.631 119.345 159.272 121.145 159.868C123.087 160.514 123.63 162.95 123.85 164.98C123.953 165.925 124.056 166.858 124.159 167.802L125.714 181.704C126.232 186.319 126.751 191.002 127.876 195.507C128.458 197.942 129.263 200.319 130.283 202.607C131.71 205.796 133.726 208.686 136.226 211.127C139.344 208.038 142.074 204.581 144.355 200.832C146.538 201.546 148.463 202.886 149.89 204.686C151.316 206.485 152.183 208.664 152.382 210.953V211.07C153.262 219.38 145.26 225.625 138.537 229.466C130.769 233.932 122.111 237.276 113.605 240.056C110.098 241.206 105.539 242.186 101.837 240.986C101.438 240.859 101.049 240.703 100.672 240.521C96.9804 238.71 94.5096 234.915 92.582 231.447C83.352 214.851 79.518 195.794 77.498 176.922C81.5379 176.365 85.5636 175.744 89.5396 174.888C89.5396 174.888 89.5396 174.917 89.5645 174.927L94.1475 182.528L94.5238 183.16C95.5178 184.58 97.2396 184.96 98.8832 184.818C99.9283 184.766 100.932 184.394 101.759 183.753C104.308 181.623 101.915 178.733 100.594 176.699" fill="#3FBDF1"/>
<path opacity="0.77" d="M105.536 183.195C107.109 185.325 109.796 185.055 112.018 183.596C113.36 182.709 114.461 182.968 113.328 180.231C113.538 180.529 113.566 179.521 113.751 179.745C116.04 182.854 113.779 178.459 113.779 178.459C116.974 182.496 123.928 178.694 122.654 175.573C121.305 172.211 119.885 167.241 118.085 164.756C119.505 163.415 119.232 163.613 121.039 164.682C121.524 164.994 121.931 165.414 122.226 165.91C122.521 166.406 122.697 166.964 122.739 167.54C122.885 168.892 123.03 170.188 123.176 171.509L124.56 183.934C125.025 188.062 125.487 192.233 126.492 196.252C127.011 198.425 127.731 200.545 128.643 202.585C129.914 205.393 133.996 210.069 136.226 212.209C138.998 209.458 142.321 204.399 144.355 201.037C148.26 202.237 148.09 205.972 148.367 210.051V210.157C149.155 217.573 142.012 223.143 136.027 226.576C129.09 230.563 121.362 233.545 113.768 236.03C110.637 237.059 106.569 237.947 103.264 236.861C102.907 236.748 102.56 236.609 102.224 236.445C98.9294 234.826 96.7213 231.443 94.9995 228.344C87.4629 214.808 83.9661 199.44 82.042 184.033C81.9007 182.88 82.2128 181.718 82.9121 180.79C83.6115 179.863 84.6435 179.244 85.7908 179.063C87.9528 178.708 90.1076 178.353 92.2483 177.877L92.3086 177.906L96.3982 184.69C97.2893 185.95 97.4348 184.963 98.901 184.835C99.8275 184.754 101.624 184.573 102.341 183.973C104.616 182.077 103.331 181.292 102.153 179.478" fill="#3FBDF1"/>
</g>
<path d="M181.261 248.427C181.261 248.427 169.471 244.55 169.294 251.068" stroke="black" stroke-width="5.47" stroke-miterlimit="10"/>
<path opacity="0.54" d="M75.7301 314.821L52.6089 255.586C52.3225 254.44 52.3012 253.243 52.5461 252.087C52.7914 250.932 53.2969 249.847 54.024 248.916C54.7514 247.985 55.6811 247.231 56.7433 246.713C57.8051 246.195 58.9712 245.926 60.1527 245.926H151.991C154.053 245.926 156.056 246.62 157.675 247.897C159.295 249.173 160.438 250.957 160.919 252.962L186.231 312.183C186.505 313.326 186.516 314.515 186.264 315.663C186.011 316.81 185.502 317.885 184.775 318.808C184.048 319.73 183.121 320.476 182.064 320.989C181.007 321.502 179.848 321.768 178.673 321.768H84.637C82.5901 321.77 80.6018 321.087 78.9879 319.828C77.3741 318.569 76.2274 316.807 75.7301 314.821Z" fill="white"/>
<path d="M185.099 258.419C185.099 258.419 187.012 260.172 186.284 262.679C185.745 264.535 183.899 265.707 182.07 265.071C176.248 263.059 171.005 259.64 169.727 253.829C169.123 250.886 168.993 247.866 169.34 244.883C169.62 242.117 170.029 239.132 170.959 236.501C172.379 232.461 176.728 229.646 180.949 231.591" stroke="black" stroke-width="5.47" stroke-miterlimit="10"/>
<path d="M75.7301 314.821L52.6089 255.586C52.3225 254.44 52.3012 253.243 52.5461 252.087C52.7914 250.932 53.2969 249.847 54.024 248.916C54.7514 247.985 55.6811 247.231 56.7433 246.713C57.8051 246.195 58.9712 245.926 60.1527 245.926H151.991C154.053 245.926 156.056 246.62 157.675 247.897C159.295 249.173 160.438 250.957 160.919 252.962L186.231 312.183C186.505 313.326 186.516 314.515 186.264 315.663C186.011 316.81 185.502 317.885 184.775 318.808C184.048 319.73 183.121 320.476 182.064 320.989C181.007 321.502 179.848 321.768 178.673 321.768H84.637C82.5901 321.77 80.6018 321.087 78.9879 319.828C77.3741 318.569 76.2274 316.807 75.7301 314.821Z" fill="#3FBDF1"/>
<path d="M75.7301 314.821L52.6089 255.586C52.3225 254.44 52.3012 253.243 52.5461 252.087C52.7914 250.932 53.2969 249.847 54.024 248.916C54.7514 247.985 55.6811 247.231 56.7433 246.713C57.8051 246.195 58.9712 245.926 60.1527 245.926H151.991C154.053 245.926 156.056 246.62 157.675 247.897C159.295 249.173 160.438 250.957 160.919 252.962L186.231 312.183C186.505 313.326 186.516 314.515 186.264 315.663C186.011 316.81 185.502 317.885 184.775 318.808C184.048 319.73 183.121 320.476 182.064 320.989C181.007 321.502 179.848 321.768 178.673 321.768H84.637C82.5901 321.77 80.6018 321.087 78.9879 319.828C77.3741 318.569 76.2274 316.807 75.7301 314.821Z" stroke="black" stroke-width="5.47" stroke-linecap="square" stroke-linejoin="round"/>
<path d="M79.1133 312.435L57.7813 257.765C57.5175 256.708 57.4984 255.604 57.7249 254.538C57.9514 253.472 58.4178 252.471 59.0891 251.613C59.7601 250.754 60.6181 250.059 61.5976 249.581C62.5774 249.103 63.653 248.855 64.7429 248.855H149.467C151.369 248.854 153.216 249.494 154.711 250.672C156.205 251.849 157.259 253.495 157.703 255.344L181.059 309.982C181.311 311.037 181.321 312.134 181.088 313.193C180.855 314.252 180.385 315.244 179.714 316.094C179.043 316.945 178.187 317.633 177.212 318.106C176.237 318.579 175.167 318.825 174.083 318.825H87.328C85.4426 318.827 83.6108 318.199 82.1229 317.042C80.6348 315.884 79.5758 314.263 79.1133 312.435Z" fill="#3FBDF1"/>
<path d="M260.437 303.859L276.681 341.45" stroke="black" stroke-width="5.47" stroke-miterlimit="10"/>
<path d="M337.5 341.45H18" stroke="black" stroke-width="5.47" stroke-miterlimit="10"/>
<path d="M186.401 171.788C183.767 174.39 179.834 174.387 177.594 171.98" stroke="black" stroke-width="5.47" stroke-miterlimit="10"/>
<path d="M116.2 161.966C117.638 160.62 119.345 159.261 121.145 159.857C123.087 160.503 123.63 162.938 123.85 164.969C124.473 170.55 125.094 176.124 125.714 181.693C126.502 188.793 127.333 196.063 130.283 202.588C131.71 205.777 133.726 208.668 136.226 211.108" stroke="black" stroke-width="5.47" stroke-miterlimit="10"/>
<path d="M152.382 211.066V210.948C152.183 208.66 151.316 206.481 149.89 204.682C148.462 202.882 146.538 201.542 144.355 200.827C142.074 204.577 139.344 208.034 136.226 211.122C128.051 219.251 117.55 224.634 106.178 226.526C106.725 228.702 107.851 230.683 108.628 232.777C109.405 234.872 109.792 237.297 108.848 239.316C107.655 241.894 104.233 241.557 101.855 240.985C101.83 240.985 101.815 240.985 101.791 240.985" stroke="black" stroke-width="5.47" stroke-miterlimit="10"/>
<path d="M89.5467 174.885C85.5707 175.74 81.545 176.362 77.5051 176.919C79.525 195.791 83.3448 214.847 92.589 231.443C94.5167 234.912 96.9875 238.707 100.679 240.517C101.056 240.7 101.445 240.855 101.844 240.982C105.547 242.2 110.105 241.202 113.612 240.052C122.132 237.269 130.776 233.928 138.544 229.462C145.25 225.618 153.251 219.377 152.389 211.066C152.305 210.151 152.118 209.248 151.831 208.375" stroke="black" stroke-width="5.47" stroke-miterlimit="10"/>
<path d="M156.031 137.24C156.627 139.724 157.987 141.958 159.92 143.628C161.853 145.298 164.261 146.319 166.805 146.548C167.017 145.523 167.475 144.565 168.14 143.758C170.98 140.41 172.191 146.69 181.275 142.182C193.863 135.919 198.642 139.512 198.642 139.512C199.061 139.824 198.997 142.707 199.068 143.232C199.423 146.225 199.742 149.203 200.094 152.192C200.307 154.017 200.516 155.828 200.715 157.638C200.886 157.33 201.076 157.032 201.283 156.747C202.43 152.689 204.478 147.897 208.894 149.96C209.788 150.396 210.567 151.036 211.166 151.83C214.095 155.678 211.876 159.395 208.812 162.146C208.045 163 207.186 163.768 206.253 164.436C206.757 165.48 208.816 169.623 208.816 169.637C209.029 170.056 216.225 161.912 216.761 161.025C217.562 158.851 217.991 156.557 218.032 154.241C218.149 144.716 214.272 133.629 206.558 128.166C204.645 126.813 205.255 125.51 205.138 123.671C205.13 123.572 205.092 123.478 205.029 123.4C204.966 123.323 204.881 123.266 204.785 123.238C204.69 123.21 204.588 123.212 204.493 123.243C204.398 123.274 204.315 123.333 204.254 123.413C201.837 126.196 195.851 125.919 195.851 125.919C175.077 120.715 168.094 129.952 163.901 131.599C162.191 132.247 160.308 132.278 158.576 131.688C158.475 132.261 158.218 132.795 157.834 133.233C157.451 133.671 156.955 133.996 156.4 134.173L156.507 135.134C156.597 135.87 156.429 136.614 156.031 137.24Z" fill="#3FBDF1"/>
<path d="M166.82 146.563C164.275 146.335 161.867 145.314 159.934 143.644C158.001 141.974 156.641 139.739 156.045 137.255C155.812 136.302 155.665 135.33 155.605 134.351L155.768 134.333C155.992 134.317 156.211 134.269 156.422 134.191C156.976 134.015 157.472 133.69 157.856 133.252C158.239 132.814 158.496 132.279 158.598 131.706C158.663 131.389 158.676 131.063 158.637 130.741L158.104 126.041C158.104 126.041 161.86 128.835 166.028 127.202C170.196 125.569 177.193 116.331 197.978 121.522C197.978 121.522 202.671 121.798 205.078 119.015C205.139 118.936 205.222 118.877 205.316 118.846C205.411 118.815 205.513 118.813 205.609 118.841C205.704 118.869 205.79 118.926 205.853 119.003C205.916 119.08 205.954 119.175 205.962 119.274C206.086 121.117 206.768 122.42 208.685 123.769C216.399 129.236 220.275 140.319 220.155 149.843C220.119 153.795 218.806 157.696 216.779 161.044C216.243 161.931 209.047 170.075 208.834 169.656C208.834 169.656 206.775 165.499 206.271 164.455L206.15 164.224L206.381 164.072C207.238 163.49 208.056 162.853 208.83 162.165C211.89 159.414 214.113 155.697 211.184 151.849C210.584 151.055 209.806 150.414 208.912 149.978C204.482 147.916 202.447 152.708 201.301 156.766C201.078 157.541 200.941 158.339 200.892 159.144C200.839 158.647 200.786 158.168 200.733 157.671C200.534 155.861 200.324 154.05 200.111 152.225C199.756 149.236 199.423 146.258 199.085 143.265C199.032 142.754 199.086 139.857 198.66 139.545C198.66 139.545 193.878 135.952 181.293 142.214C172.208 146.723 170.998 140.439 168.158 143.791C167.493 144.598 167.034 145.556 166.823 146.581C166.758 146.91 166.717 147.243 166.699 147.579C166.692 147.622 166.692 147.666 166.699 147.71C166.656 148.445 166.642 149.176 166.624 149.893C166.557 156.812 167.317 164.04 170.032 170.465C173.334 178.254 182.07 185.936 191.155 182.305C193.995 181.165 196.54 179.33 198.869 177.381" stroke="black" stroke-width="5.47" stroke-miterlimit="10"/>
<path d="M173.036 163.438C173.94 163.135 174.376 162.004 174.01 160.911C173.644 159.818 172.615 159.176 171.711 159.479C170.808 159.781 170.372 160.912 170.738 162.006C171.104 163.099 172.133 163.74 173.036 163.438Z" fill="black"/>
<path d="M186.553 163.005C187.457 162.703 187.893 161.572 187.527 160.478C187.161 159.385 186.132 158.744 185.228 159.046C184.325 159.349 183.889 160.48 184.255 161.573C184.62 162.666 185.649 163.307 186.553 163.005Z" fill="black"/>
<path d="M181.385 165.346C181.385 165.346 176.887 167.899 176.614 165.25C176.529 164.434 175.428 156.436 175.428 156.436C175.428 156.436 171.793 152.584 166.223 155.431" stroke="black" stroke-width="5.47" stroke-miterlimit="10"/>
<path d="M180.373 154.195C180.373 154.195 187.637 150.567 192.443 155.796" stroke="black" stroke-width="5.47" stroke-miterlimit="10"/>
<path d="M187.033 183.195L187.868 187.477C185.237 189.901 183.377 193.377 183.92 197.037C184.403 200.281 187.058 203.303 189.781 205.003C194.332 207.843 200.385 207.619 205.284 205.812C210.073 204.037 214.216 200.668 217.219 196.558C218.633 194.57 219.575 192.287 219.974 189.88V189.837" stroke="black" stroke-width="5.47" stroke-miterlimit="10"/>
<path d="M187.867 187.476L189.493 195.208" stroke="black" stroke-width="5.47" stroke-miterlimit="10"/>
<path d="M210.861 167.792L213.317 184.104C213.56 185.701 214.367 187.158 215.592 188.21C216.818 189.262 218.38 189.839 219.995 189.837C227.641 191.076 235.183 192.885 242.559 195.247C271.374 204.541 289.11 230.499 294.119 259.502C296.203 271.647 296.359 284.384 293.743 296.461C292.255 303.26 290.104 310.896 285.109 315.986C278.623 322.625 268.669 319.892 261.005 316.892C237.209 307.637 217.418 291.172 200.328 272.321C191.19 262.239 179.383 254.16 179.383 254.16" stroke="black" stroke-width="5.47" stroke-miterlimit="10"/>
<path d="M86.9765 300.2C84.3069 300.175 81.9816 298.02 81.3817 295.021C80.196 289.121 79.8836 279.997 88.535 278.006C99.3447 275.521 107.659 287.292 111.734 294.733C113.105 297.218 111.553 300.413 109.001 300.413L86.9765 300.2Z" fill="#D7E8F0"/>
<path d="M90.5453 272.996C92.84 271.469 92.8755 267.488 90.6238 264.104C88.3724 260.72 84.6867 259.215 82.3917 260.742C80.0966 262.269 80.0614 266.25 82.3129 269.634C84.5646 273.018 88.2502 274.523 90.5453 272.996Z" fill="#D7E8F0"/>
<path d="M268.193 325.968C268.027 325.993 267.838 326.018 267.675 326.057H267.611L242.36 325.926L204.471 325.73C204.325 325.73 204.183 325.73 204.041 325.73C203.76 325.724 203.479 325.702 203.2 325.666C205.767 325.368 208.147 324.174 209.92 322.294C211.693 320.415 212.747 317.969 212.895 315.389C212.902 315.256 212.902 315.122 212.895 314.988V314.782C212.885 312.258 212.005 309.814 210.404 307.862C208.803 305.91 206.579 304.569 204.105 304.065C203.846 304.001 203.562 303.962 203.289 303.923C203.718 303.884 204.144 303.855 204.56 303.855L236.57 304.026L242.463 304.05L250.411 304.09C253.133 304.338 255.664 305.593 257.51 307.608C259.355 309.624 260.382 312.255 260.39 314.988C260.391 315.504 260.352 316.019 260.273 316.529C259.895 319.131 258.595 321.51 256.611 323.234C254.626 324.959 252.089 325.914 249.46 325.926H268.694C267.586 325.926 267.895 325.926 268.193 325.968Z" fill="white"/>
<path d="M216.974 339.172C217.695 339.897 218.553 340.472 219.498 340.864C220.444 341.255 221.457 341.454 222.48 341.451H203.885C200.335 341.451 198.397 340.585 196.984 339.172C195.532 337.714 194.714 335.741 194.708 333.684C194.708 329.424 198.202 325.93 203.885 325.93H222.48C220.945 325.928 219.444 326.381 218.166 327.233C216.889 328.085 215.893 329.297 215.306 330.715C214.718 332.133 214.564 333.694 214.865 335.199C215.165 336.705 215.905 338.087 216.992 339.172H216.974Z" fill="#D7E8F0"/>
<path d="M278.385 315.183C278.381 316.823 277.999 318.44 277.271 319.908C276.75 321.019 276.036 322.027 275.162 322.887C273.72 324.315 271.91 325.314 269.933 325.773C269.118 325.961 268.284 326.056 267.448 326.057C267.618 326.018 267.803 325.993 267.966 325.968C267.668 325.94 267.359 325.929 268.47 325.929H249.233C251.864 325.919 254.403 324.964 256.389 323.239C258.375 321.513 259.675 319.132 260.053 316.529C260.132 316.019 260.171 315.504 260.17 314.988C260.162 312.255 259.134 309.623 257.288 307.607C255.442 305.591 252.91 304.337 250.188 304.089L260.571 304.143L267.508 304.182C270.407 304.206 273.178 305.377 275.216 307.438C277.255 309.5 278.394 312.284 278.385 315.183Z" fill="#3FBDF1"/>
<path d="M278.385 315.18C278.364 318.081 277.194 320.855 275.131 322.894C273.068 324.934 270.281 326.073 267.38 326.061L204.219 325.735C203.796 325.735 203.374 325.703 202.948 325.66C205.61 325.358 208.07 324.091 209.86 322.097C211.65 320.103 212.646 317.522 212.66 314.842C212.674 312.163 211.705 309.571 209.936 307.559C208.166 305.546 205.721 304.253 203.062 303.923C203.484 303.879 203.908 303.858 204.332 303.859L267.494 304.186C270.394 304.206 273.169 305.374 275.21 307.434C277.251 309.495 278.393 312.28 278.385 315.18Z" stroke="black" stroke-width="5.47" stroke-linecap="square" stroke-linejoin="round"/>
<path d="M260.163 314.985C260.158 317.885 259.003 320.664 256.952 322.715C254.902 324.766 252.122 325.92 249.222 325.926H204.283C203.858 325.923 203.434 325.9 203.012 325.855C205.672 325.539 208.125 324.258 209.904 322.255C211.683 320.252 212.666 317.666 212.666 314.987C212.666 312.307 211.683 309.721 209.904 307.718C208.125 305.715 205.672 304.434 203.012 304.118C203.434 304.079 203.86 304.051 204.283 304.051H249.222C252.121 304.057 254.899 305.211 256.949 307.26C258.999 309.309 260.155 312.086 260.163 314.985Z" stroke="black" stroke-width="5.47" stroke-linecap="square" stroke-linejoin="round"/>
<path d="M194.708 333.686C194.708 334.704 194.909 335.712 195.298 336.653C195.689 337.593 196.26 338.448 196.98 339.167C198.4 340.587 200.328 341.45 203.882 341.45H268.467C267.356 341.45 267.657 341.428 267.959 341.4C266.069 341.178 264.327 340.269 263.063 338.847C261.798 337.425 261.1 335.589 261.1 333.686C261.1 331.783 261.798 329.947 263.063 328.524C264.327 327.103 266.069 326.194 267.959 325.972C267.657 325.943 267.356 325.922 268.467 325.922H203.882C198.194 325.925 194.708 329.419 194.708 333.686Z" stroke="black" stroke-width="5.47" stroke-linecap="square" stroke-linejoin="round"/>
<path d="M214.695 333.686C214.699 335.744 215.519 337.716 216.974 339.17C218.429 340.626 220.401 341.445 222.459 341.45H267.057C267.356 341.45 267.657 341.428 267.959 341.4C266.069 341.178 264.327 340.269 263.063 338.847C261.798 337.425 261.1 335.589 261.1 333.686C261.1 331.783 261.798 329.947 263.063 328.524C264.327 327.103 266.069 326.194 267.959 325.972C267.657 325.943 267.356 325.922 267.057 325.922H222.459C220.401 325.928 218.43 326.747 216.975 328.202C215.52 329.657 214.701 331.628 214.695 333.686Z" stroke="black" stroke-width="5.47" stroke-linecap="square" stroke-linejoin="round"/>
<path d="M142.399 274.451H122.476C121.565 274.45 120.673 274.183 119.911 273.684C119.148 273.185 118.547 272.475 118.181 271.64C118.04 271.329 117.979 270.987 118.005 270.647C118.031 270.307 118.143 269.979 118.33 269.693C118.517 269.407 118.773 269.174 119.075 269.014C119.377 268.854 119.714 268.773 120.055 268.778H141.235C140.237 270.457 140.745 272.79 142.399 274.451Z" fill="#D7E8F0"/>
<path d="M155.282 272.399C155.281 272.942 155.065 273.462 154.681 273.846C154.297 274.23 153.777 274.446 153.234 274.447H142.399C140.745 272.789 140.237 270.457 141.235 268.767H150.802C151.713 268.767 152.603 269.032 153.366 269.528C154.129 270.025 154.732 270.732 155.101 271.564C155.216 271.828 155.277 272.111 155.282 272.399Z" fill="#3FBDF1"/>
<path d="M150.298 274.451C150.242 274.559 150.176 274.662 150.103 274.76C148.683 276.702 145.598 276.89 143.201 275.136C142.918 274.927 142.65 274.698 142.399 274.451C140.745 272.793 140.237 270.461 141.235 268.771C141.291 268.663 141.356 268.559 141.43 268.462C142.85 266.506 145.921 266.332 148.317 268.071C148.606 268.287 148.877 268.525 149.13 268.781C150.77 270.432 151.281 272.75 150.298 274.451Z" fill="white"/>
<path d="M160.291 284.906C160.287 285.45 160.069 285.97 159.683 286.353C159.297 286.736 158.776 286.951 158.232 286.951H137.326C138.334 285.254 137.83 282.94 136.172 281.271H155.811C156.723 281.272 157.615 281.537 158.378 282.036C159.142 282.534 159.743 283.244 160.11 284.079C160.227 284.339 160.289 284.621 160.291 284.906Z" fill="#3FBDF1"/>
<path d="M137.326 286.95H127.489C126.579 286.951 125.687 286.687 124.924 286.19C124.161 285.693 123.558 284.986 123.19 284.153C123.074 283.892 123.013 283.611 123.009 283.326C123.009 283.057 123.061 282.791 123.164 282.542C123.266 282.294 123.417 282.069 123.607 281.879C123.797 281.689 124.023 281.538 124.271 281.436C124.519 281.333 124.785 281.28 125.054 281.281H136.172C137.83 282.939 138.345 285.253 137.326 286.95Z" fill="#D7E8F0"/>
<path d="M137.326 286.951C137.28 287.062 137.219 287.167 137.145 287.263C135.725 289.215 132.651 289.393 130.258 287.65C129.968 287.434 129.696 287.197 129.442 286.94C127.798 285.282 127.294 282.967 128.277 281.26C128.334 281.151 128.399 281.046 128.472 280.947C129.892 279.006 132.977 278.817 135.37 280.575C135.655 280.782 135.923 281.011 136.172 281.26C137.83 282.939 138.345 285.254 137.326 286.951Z" fill="white"/>
<path d="M144.291 299.366H131.774C130.864 299.364 129.973 299.1 129.21 298.603C128.447 298.107 127.844 297.4 127.475 296.568C127.334 296.256 127.274 295.914 127.3 295.573C127.327 295.232 127.439 294.904 127.626 294.617C127.813 294.331 128.07 294.096 128.371 293.935C128.673 293.774 129.011 293.692 129.353 293.696H143.127C142.14 295.397 142.648 297.708 144.291 299.366Z" fill="#3FBDF1"/>
<path d="M164.576 297.334C164.573 297.874 164.356 298.392 163.973 298.772C163.59 299.153 163.071 299.366 162.531 299.365H144.291C142.648 297.707 142.14 295.393 143.127 293.685H160.096C161.007 293.685 161.9 293.951 162.663 294.449C163.426 294.948 164.028 295.658 164.395 296.493C164.512 296.758 164.573 297.044 164.576 297.334Z" fill="#D7E8F0"/>
<path d="M152.19 299.366C152.133 299.475 152.068 299.579 151.995 299.678C150.575 301.63 147.504 301.808 145.108 300.065C144.82 299.848 144.548 299.611 144.295 299.355C142.651 297.697 142.143 295.382 143.13 293.675C143.185 293.565 143.249 293.46 143.322 293.363C144.742 291.421 147.827 291.254 150.223 292.99C150.508 293.197 150.776 293.426 151.026 293.675C152.68 295.354 153.184 297.683 152.19 299.366Z" fill="white"/>
<path d="M57.6216 186.188L57.934 186.277L57.8168 186.731C57.7426 186.554 57.6773 186.372 57.6216 186.188Z" fill="#353642"/>
<path d="M113.178 214.589C117.851 213.218 120.306 207.565 118.662 201.965C117.018 196.365 111.897 192.937 107.224 194.308C102.551 195.68 100.096 201.332 101.74 206.933C103.384 212.533 108.505 215.961 113.178 214.589Z" fill="#D7E8F0"/>
</svg>
